<?xml version="1.0" encoding="UTF-8" standalone="no"?>
<!DOCTYPE svg PUBLIC "-//W3C//DTD SVG 1.1//EN"
 "http://www.w3.org/Graphics/SVG/1.1/DTD/svg11.dtd">
<!-- Generated by graphviz version 2.43.0 (0)
 -->
<!-- Title: G Pages: 1 -->
<svg width="386pt" height="345pt"
 viewBox="0.00 0.00 385.90 344.87" xmlns="http://www.w3.org/2000/svg" xmlns:xlink="http://www.w3.org/1999/xlink">
<g id="graph0" class="graph" transform="scale(1 1) rotate(0) translate(4 340.87)">
<title>G</title>
<polygon fill="white" stroke="transparent" points="-4,4 -4,-340.87 381.9,-340.87 381.9,4 -4,4"/>
<!-- system.ruby.network.routers0 -->
<g id="node1" class="node">
<title>system.ruby.network.routers0</title>
<path fill="#cce6fc" stroke="#000000" d="M92.93,-169.42C92.93,-169.42 122.93,-169.42 122.93,-169.42 128.93,-169.42 134.93,-175.42 134.93,-181.42 134.93,-181.42 134.93,-193.42 134.93,-193.42 134.93,-199.42 128.93,-205.42 122.93,-205.42 122.93,-205.42 92.93,-205.42 92.93,-205.42 86.93,-205.42 80.93,-199.42 80.93,-193.42 80.93,-193.42 80.93,-181.42 80.93,-181.42 80.93,-175.42 86.93,-169.42 92.93,-169.42"/>
<text text-anchor="middle" x="107.93" y="-183.72" font-family="Arial" font-size="14.00" fill="#000000">R 0</text>
</g>
<!-- system.ruby.network.routers5 -->
<g id="node6" class="node">
<title>system.ruby.network.routers5</title>
<path fill="#cce6fc" stroke="#000000" d="M170.68,-138.33C170.68,-138.33 200.68,-138.33 200.68,-138.33 206.68,-138.33 212.68,-144.33 212.68,-150.33 212.68,-150.33 212.68,-162.33 212.68,-162.33 212.68,-168.33 206.68,-174.33 200.68,-174.33 200.68,-174.33 170.68,-174.33 170.68,-174.33 164.68,-174.33 158.68,-168.33 158.68,-162.33 158.68,-162.33 158.68,-150.33 158.68,-150.33 158.68,-144.33 164.68,-138.33 170.68,-138.33"/>
<text text-anchor="middle" x="185.68" y="-152.63" font-family="Arial" font-size="14.00" fill="#000000">R 5</text>
</g>
<!-- system.ruby.network.routers0&#45;&#45;system.ruby.network.routers5 -->
<g id="edge1" class="edge">
<title>system.ruby.network.routers0&#45;&#45;system.ruby.network.routers5</title>
<path fill="none" stroke="#042d50" d="M135.32,-183.31C139.79,-181.8 144.49,-180.07 149.13,-178.21"/>
<polygon fill="#042d50" stroke="#042d50" points="150.66,-181.37 158.53,-174.27 147.95,-174.91 150.66,-181.37"/>
</g>
<!-- system.ruby.network.routers1 -->
<g id="node2" class="node">
<title>system.ruby.network.routers1</title>
<path fill="#cce6fc" stroke="#000000" d="M251.85,-158.85C251.85,-158.85 281.85,-158.85 281.85,-158.85 287.85,-158.85 293.85,-164.85 293.85,-170.85 293.85,-170.85 293.85,-182.85 293.85,-182.85 293.85,-188.85 287.85,-194.85 281.85,-194.85 281.85,-194.85 251.85,-194.85 251.85,-194.85 245.85,-194.85 239.85,-188.85 239.85,-182.85 239.85,-182.85 239.85,-170.85 239.85,-170.85 239.85,-164.85 245.85,-158.85 251.85,-158.85"/>
<text text-anchor="middle" x="266.85" y="-173.15" font-family="Arial" font-size="14.00" fill="#000000">R 1</text>
</g>
<!-- system.ruby.network.routers1&#45;&#45;system.ruby.network.routers5 -->
<g id="edge2" class="edge">
<title>system.ruby.network.routers1&#45;&#45;system.ruby.network.routers5</title>
<path fill="none" stroke="#042d50" d="M239.59,-163.26C234.19,-161.64 228.42,-160.11 222.75,-158.79"/>
<polygon fill="#042d50" stroke="#042d50" points="223.25,-155.31 212.74,-156.65 221.79,-162.16 223.25,-155.31"/>
</g>
<!-- system.ruby.network.routers2 -->
<g id="node3" class="node">
<title>system.ruby.network.routers2</title>
<path fill="#cce6fc" stroke="#000000" d="M117.29,-73.87C117.29,-73.87 147.29,-73.87 147.29,-73.87 153.29,-73.87 159.29,-79.87 159.29,-85.87 159.29,-85.87 159.29,-97.87 159.29,-97.87 159.29,-103.87 153.29,-109.87 147.29,-109.87 147.29,-109.87 117.29,-109.87 117.29,-109.87 111.29,-109.87 105.29,-103.87 105.29,-97.87 105.29,-97.87 105.29,-85.87 105.29,-85.87 105.29,-79.87 111.29,-73.87 117.29,-73.87"/>
<text text-anchor="middle" x="132.29" y="-88.17" font-family="Arial" font-size="14.00" fill="#000000">R 2</text>
</g>
<!-- system.ruby.network.routers2&#45;&#45;system.ruby.network.routers5 -->
<g id="edge3" class="edge">
<title>system.ruby.network.routers2&#45;&#45;system.ruby.network.routers5</title>
<path fill="none" stroke="#042d50" d="M139.97,-110.17C144.27,-116.51 149.81,-123.72 155.57,-130.53"/>
<polygon fill="#042d50" stroke="#042d50" points="153.13,-133.06 162.36,-138.28 158.4,-128.45 153.13,-133.06"/>
</g>
<!-- system.ruby.network.routers3 -->
<g id="node4" class="node">
<title>system.ruby.network.routers3</title>
<path fill="#cce6fc" stroke="#000000" d="M176.13,-221.92C176.13,-221.92 206.13,-221.92 206.13,-221.92 212.13,-221.92 218.13,-227.92 218.13,-233.92 218.13,-233.92 218.13,-245.92 218.13,-245.92 218.13,-251.92 212.13,-257.92 206.13,-257.92 206.13,-257.92 176.13,-257.92 176.13,-257.92 170.13,-257.92 164.13,-251.92 164.13,-245.92 164.13,-245.92 164.13,-233.92 164.13,-233.92 164.13,-227.92 170.13,-221.92 176.13,-221.92"/>
<text text-anchor="middle" x="191.13" y="-236.22" font-family="Arial" font-size="14.00" fill="#000000">R 3</text>
</g>
<!-- system.ruby.network.routers3&#45;&#45;system.ruby.network.routers5 -->
<g id="edge4" class="edge">
<title>system.ruby.network.routers3&#45;&#45;system.ruby.network.routers5</title>
<path fill="none" stroke="#042d50" d="M195.6,-221.83C196.02,-211 195.38,-197.01 194,-184.74"/>
<polygon fill="#042d50" stroke="#042d50" points="197.43,-183.96 192.6,-174.52 190.49,-184.91 197.43,-183.96"/>
</g>
<!-- system.ruby.network.routers4 -->
<g id="node5" class="node">
<title>system.ruby.network.routers4</title>
<path fill="#cce6fc" stroke="#000000" d="M215.33,-67.49C215.33,-67.49 245.33,-67.49 245.33,-67.49 251.33,-67.49 257.33,-73.49 257.33,-79.49 257.33,-79.49 257.33,-91.49 257.33,-91.49 257.33,-97.49 251.33,-103.49 245.33,-103.49 245.33,-103.49 215.33,-103.49 215.33,-103.49 209.33,-103.49 203.33,-97.49 203.33,-91.49 203.33,-91.49 203.33,-79.49 203.33,-79.49 203.33,-73.49 209.33,-67.49 215.33,-67.49"/>
<text text-anchor="middle" x="230.33" y="-81.79" font-family="Arial" font-size="14.00" fill="#000000">R 4</text>
</g>
<!-- system.ruby.network.routers4&#45;&#45;system.ruby.network.routers5 -->
<g id="edge5" class="edge">
<title>system.ruby.network.routers4&#45;&#45;system.ruby.network.routers5</title>
<path fill="none" stroke="#042d50" d="M218.83,-103.73C213.92,-111.52 208.09,-120.77 202.7,-129.33"/>
<polygon fill="#042d50" stroke="#042d50" points="199.66,-127.57 197.29,-137.9 205.59,-131.31 199.66,-127.57"/>
</g>
<!-- system.ruby.network.routers5&#45;&#45;system.ruby.network.routers0 -->
<g id="edge6" class="edge">
<title>system.ruby.network.routers5&#45;&#45;system.ruby.network.routers0</title>
<path fill="none" stroke="#042d50" d="M158.29,-160.44C153.82,-161.94 149.13,-163.68 144.48,-165.53"/>
<polygon fill="#042d50" stroke="#042d50" points="142.95,-162.38 135.08,-169.48 145.66,-168.84 142.95,-162.38"/>
</g>
<!-- system.ruby.network.routers5&#45;&#45;system.ruby.network.routers1 -->
<g id="edge7" class="edge">
<title>system.ruby.network.routers5&#45;&#45;system.ruby.network.routers1</title>
<path fill="none" stroke="#042d50" d="M212.93,-169.91C218.34,-171.53 224.1,-173.06 229.77,-174.38"/>
<polygon fill="#042d50" stroke="#042d50" points="229.27,-177.86 239.78,-176.52 230.73,-171.01 229.27,-177.86"/>
</g>
<!-- system.ruby.network.routers5&#45;&#45;system.ruby.network.routers2 -->
<g id="edge8" class="edge">
<title>system.ruby.network.routers5&#45;&#45;system.ruby.network.routers2</title>
<path fill="none" stroke="#042d50" d="M178,-138.02C173.7,-131.68 168.16,-124.48 162.4,-117.66"/>
<polygon fill="#042d50" stroke="#042d50" points="164.84,-115.13 155.62,-109.92 159.58,-119.75 164.84,-115.13"/>
</g>
<!-- system.ruby.network.routers5&#45;&#45;system.ruby.network.routers3 -->
<g id="edge9" class="edge">
<title>system.ruby.network.routers5&#45;&#45;system.ruby.network.routers3</title>
<path fill="none" stroke="#042d50" d="M181.21,-174.42C180.79,-185.24 181.43,-199.23 182.81,-211.5"/>
<polygon fill="#042d50" stroke="#042d50" points="179.39,-212.29 184.21,-221.72 186.32,-211.34 179.39,-212.29"/>
</g>
<!-- system.ruby.l1_cntrl0 -->
<g id="node7" class="node">
<title>system.ruby.l1_cntrl0</title>
<path fill="#e5bcd0" stroke="#000000" d="M12,-196.66C12,-196.66 56,-196.66 56,-196.66 62,-196.66 68,-202.66 68,-208.66 68,-208.66 68,-220.66 68,-220.66 68,-226.66 62,-232.66 56,-232.66 56,-232.66 12,-232.66 12,-232.66 6,-232.66 0,-226.66 0,-220.66 0,-220.66 0,-208.66 0,-208.66 0,-202.66 6,-196.66 12,-196.66"/>
<text text-anchor="middle" x="34" y="-210.96" font-family="Arial" font-size="14.00" fill="#000000">l1_cntrl0</text>
</g>
<!-- system.ruby.l1_cntrl0&#45;&#45;system.ruby.network.routers0 -->
<g id="edge10" class="edge">
<title>system.ruby.l1_cntrl0&#45;&#45;system.ruby.network.routers0</title>
<path fill="none" stroke="#381526" d="M77.9,-198.49C78.01,-198.45 78.12,-198.41 78.23,-198.37"/>
<polygon fill="#381526" stroke="#381526" points="76.54,-195.26 68.37,-202 78.96,-201.83 76.54,-195.26"/>
<polygon fill="#381526" stroke="#381526" points="72.34,-204.27 80.51,-197.52 69.92,-197.7 72.34,-204.27"/>
</g>
<!-- system.ruby.l1_cntrl1 -->
<g id="node8" class="node">
<title>system.ruby.l1_cntrl1</title>
<path fill="#e5bcd0" stroke="#000000" d="M321.9,-175.51C321.9,-175.51 365.9,-175.51 365.9,-175.51 371.9,-175.51 377.9,-181.51 377.9,-187.51 377.9,-187.51 377.9,-199.51 377.9,-199.51 377.9,-205.51 371.9,-211.51 365.9,-211.51 365.9,-211.51 321.9,-211.51 321.9,-211.51 315.9,-211.51 309.9,-205.51 309.9,-199.51 309.9,-199.51 309.9,-187.51 309.9,-187.51 309.9,-181.51 315.9,-175.51 321.9,-175.51"/>
<text text-anchor="middle" x="343.9" y="-189.81" font-family="Arial" font-size="14.00" fill="#000000">l1_cntrl1</text>
</g>
<!-- system.ruby.l1_cntrl1&#45;&#45;system.ruby.network.routers1 -->
<g id="edge11" class="edge">
<title>system.ruby.l1_cntrl1&#45;&#45;system.ruby.network.routers1</title>
<path fill="none" stroke="#381526" d="M299.86,-183.99C299.74,-183.96 299.62,-183.93 299.49,-183.91"/>
<polygon fill="#381526" stroke="#381526" points="299.36,-187.46 309.88,-186.15 300.84,-180.62 299.36,-187.46"/>
<polygon fill="#381526" stroke="#381526" points="304.49,-181.41 293.98,-182.71 303.01,-188.25 304.49,-181.41"/>
</g>
<!-- system.ruby.l1_cntrl2 -->
<g id="node9" class="node">
<title>system.ruby.l1_cntrl2</title>
<path fill="#e5bcd0" stroke="#000000" d="M60.88,-12.41C60.88,-12.41 104.88,-12.41 104.88,-12.41 110.88,-12.41 116.88,-18.41 116.88,-24.41 116.88,-24.41 116.88,-36.41 116.88,-36.41 116.88,-42.41 110.88,-48.41 104.88,-48.41 104.88,-48.41 60.88,-48.41 60.88,-48.41 54.88,-48.41 48.88,-42.41 48.88,-36.41 48.88,-36.41 48.88,-24.41 48.88,-24.41 48.88,-18.41 54.88,-12.41 60.88,-12.41"/>
<text text-anchor="middle" x="82.88" y="-26.71" font-family="Arial" font-size="14.00" fill="#000000">l1_cntrl2</text>
</g>
<!-- system.ruby.l1_cntrl2&#45;&#45;system.ruby.network.routers2 -->
<g id="edge12" class="edge">
<title>system.ruby.l1_cntrl2&#45;&#45;system.ruby.network.routers2</title>
<path fill="none" stroke="#381526" d="M103.99,-56.67C106.44,-59.72 108.94,-62.82 111.38,-65.86"/>
<polygon fill="#381526" stroke="#381526" points="106.43,-54.12 97.44,-48.52 100.98,-58.51 106.43,-54.12"/>
<polygon fill="#381526" stroke="#381526" points="108.68,-68.08 117.67,-73.68 114.13,-63.69 108.68,-68.08"/>
</g>
<!-- system.ruby.l1_cntrl3 -->
<g id="node10" class="node">
<title>system.ruby.l1_cntrl3</title>
<path fill="#e5bcd0" stroke="#000000" d="M176.36,-300.37C176.36,-300.37 220.36,-300.37 220.36,-300.37 226.36,-300.37 232.36,-306.37 232.36,-312.37 232.36,-312.37 232.36,-324.37 232.36,-324.37 232.36,-330.37 226.36,-336.37 220.36,-336.37 220.36,-336.37 176.36,-336.37 176.36,-336.37 170.36,-336.37 164.36,-330.37 164.36,-324.37 164.36,-324.37 164.36,-312.37 164.36,-312.37 164.36,-306.37 170.36,-300.37 176.36,-300.37"/>
<text text-anchor="middle" x="198.36" y="-314.67" font-family="Arial" font-size="14.00" fill="#000000">l1_cntrl3</text>
</g>
<!-- system.ruby.l1_cntrl3&#45;&#45;system.ruby.network.routers3 -->
<g id="edge13" class="edge">
<title>system.ruby.l1_cntrl3&#45;&#45;system.ruby.network.routers3</title>
<path fill="none" stroke="#381526" d="M195.75,-290.02C195.09,-282.85 194.38,-275.15 193.72,-267.99"/>
<polygon fill="#381526" stroke="#381526" points="192.28,-290.54 196.68,-300.18 199.25,-289.9 192.28,-290.54"/>
<polygon fill="#381526" stroke="#381526" points="197.2,-267.65 192.8,-258.02 190.23,-268.3 197.2,-267.65"/>
</g>
<!-- system.ruby.dir_cntrl0 -->
<g id="node11" class="node">
<title>system.ruby.dir_cntrl0</title>
<path fill="#e5bcd0" stroke="#000000" d="M247.96,-0.5C247.96,-0.5 295.96,-0.5 295.96,-0.5 301.96,-0.5 307.96,-6.5 307.96,-12.5 307.96,-12.5 307.96,-24.5 307.96,-24.5 307.96,-30.5 301.96,-36.5 295.96,-36.5 295.96,-36.5 247.96,-36.5 247.96,-36.5 241.96,-36.5 235.96,-30.5 235.96,-24.5 235.96,-24.5 235.96,-12.5 235.96,-12.5 235.96,-6.5 241.96,-0.5 247.96,-0.5"/>
<text text-anchor="middle" x="271.96" y="-14.8" font-family="Arial" font-size="14.00" fill="#000000">dir_cntrl0</text>
</g>
<!-- system.ruby.dir_cntrl0&#45;&#45;system.ruby.network.routers4 -->
<g id="edge14" class="edge">
<title>system.ruby.dir_cntrl0&#45;&#45;system.ruby.network.routers4</title>
<path fill="none" stroke="#381526" d="M255.08,-45.66C252.41,-49.96 249.64,-54.41 246.97,-58.7"/>
<polygon fill="#381526" stroke="#381526" points="258.28,-47.15 260.58,-36.81 252.33,-43.45 258.28,-47.15"/>
<polygon fill="#381526" stroke="#381526" points="243.99,-56.87 241.69,-67.21 249.94,-60.56 243.99,-56.87"/>
</g>
</g>
</svg>
